%TF.GenerationSoftware,KiCad,Pcbnew,8.0.2*%
%TF.CreationDate,2024-06-13T14:38:33-04:00*%
%TF.ProjectId,CSL_AQS_V1,43534c5f-4151-4535-9f56-312e6b696361,rev?*%
%TF.SameCoordinates,Original*%
%TF.FileFunction,Soldermask,Bot*%
%TF.FilePolarity,Negative*%
%FSLAX46Y46*%
G04 Gerber Fmt 4.6, Leading zero omitted, Abs format (unit mm)*
G04 Created by KiCad (PCBNEW 8.0.2) date 2024-06-13 14:38:33*
%MOMM*%
%LPD*%
G01*
G04 APERTURE LIST*
G04 Aperture macros list*
%AMRoundRect*
0 Rectangle with rounded corners*
0 $1 Rounding radius*
0 $2 $3 $4 $5 $6 $7 $8 $9 X,Y pos of 4 corners*
0 Add a 4 corners polygon primitive as box body*
4,1,4,$2,$3,$4,$5,$6,$7,$8,$9,$2,$3,0*
0 Add four circle primitives for the rounded corners*
1,1,$1+$1,$2,$3*
1,1,$1+$1,$4,$5*
1,1,$1+$1,$6,$7*
1,1,$1+$1,$8,$9*
0 Add four rect primitives between the rounded corners*
20,1,$1+$1,$2,$3,$4,$5,0*
20,1,$1+$1,$4,$5,$6,$7,0*
20,1,$1+$1,$6,$7,$8,$9,0*
20,1,$1+$1,$8,$9,$2,$3,0*%
G04 Aperture macros list end*
%ADD10C,1.750000*%
%ADD11RoundRect,0.250000X-0.550000X1.050000X-0.550000X-1.050000X0.550000X-1.050000X0.550000X1.050000X0*%
%ADD12O,1.600000X2.600000*%
%ADD13R,1.700000X1.700000*%
%ADD14O,1.700000X1.700000*%
%ADD15C,1.350000*%
%ADD16O,1.350000X1.350000*%
%ADD17R,1.350000X1.350000*%
%ADD18C,1.700000*%
%ADD19RoundRect,0.250000X0.550000X-1.050000X0.550000X1.050000X-0.550000X1.050000X-0.550000X-1.050000X0*%
G04 APERTURE END LIST*
D10*
%TO.C,*%
X185420000Y-83820000D03*
%TD*%
%TO.C,*%
X172720000Y-86360000D03*
%TD*%
%TO.C,*%
X187960000Y-96520000D03*
%TD*%
%TO.C,*%
X180340000Y-109220000D03*
%TD*%
%TO.C,*%
X198120000Y-99060000D03*
%TD*%
%TO.C,*%
X193040000Y-101600000D03*
%TD*%
%TO.C,*%
X185420000Y-106680000D03*
%TD*%
%TO.C,*%
X172720000Y-88900000D03*
%TD*%
%TO.C,*%
X172720000Y-76200000D03*
%TD*%
%TO.C,*%
X175260000Y-104140000D03*
%TD*%
%TO.C,*%
X193040000Y-99060000D03*
%TD*%
D11*
%TO.C,A2*%
X96520000Y-95550000D03*
X96520000Y-100630000D03*
D12*
X93980000Y-95550000D03*
X93980000Y-100630000D03*
X91440000Y-95550000D03*
X91440000Y-100630000D03*
X88900000Y-95550000D03*
X88900000Y-100630000D03*
X86360000Y-95550000D03*
X86360000Y-100630000D03*
X83820000Y-95550000D03*
X83820000Y-100630000D03*
X81280000Y-95550000D03*
X81280000Y-100630000D03*
X78740000Y-95550000D03*
X78740000Y-100630000D03*
X76200000Y-95550000D03*
X76200000Y-100630000D03*
X73660000Y-95550000D03*
X73660000Y-100630000D03*
X71120000Y-95550000D03*
X71120000Y-100630000D03*
X68580000Y-95550000D03*
X68580000Y-100630000D03*
X66040000Y-95550000D03*
X66040000Y-100630000D03*
X63500000Y-95550000D03*
X63500000Y-100630000D03*
X60960000Y-95550000D03*
X60960000Y-100630000D03*
X58420000Y-95550000D03*
X58420000Y-100630000D03*
X58420000Y-110190000D03*
X58420000Y-115270000D03*
X60960000Y-110190000D03*
X60960000Y-115270000D03*
X63500000Y-110190000D03*
X63500000Y-115270000D03*
X66040000Y-110190000D03*
X66040000Y-115270000D03*
X68580000Y-110190000D03*
X68580000Y-115270000D03*
X71120000Y-110190000D03*
X71120000Y-115270000D03*
X73660000Y-110190000D03*
X73660000Y-115270000D03*
X76200000Y-110190000D03*
X76200000Y-115270000D03*
X78740000Y-110190000D03*
X78740000Y-115270000D03*
X81280000Y-110190000D03*
X81280000Y-115270000D03*
X83820000Y-110190000D03*
X83820000Y-115270000D03*
X86360000Y-110190000D03*
X86360000Y-115270000D03*
%TD*%
D10*
%TO.C,*%
X182880000Y-96520000D03*
%TD*%
%TO.C,*%
X180340000Y-96520000D03*
%TD*%
%TO.C,*%
X193040000Y-88900000D03*
%TD*%
%TO.C,*%
X185420000Y-76200000D03*
%TD*%
%TO.C,*%
X187960000Y-78740000D03*
%TD*%
D13*
%TO.C,JP2*%
X111760000Y-111760000D03*
D14*
X114300000Y-111760000D03*
X116840000Y-111760000D03*
X119380000Y-111760000D03*
%TD*%
D10*
%TO.C,*%
X180340000Y-106680000D03*
%TD*%
%TO.C,*%
X190500000Y-78740000D03*
%TD*%
%TO.C,*%
X203200000Y-73660000D03*
%TD*%
%TO.C,*%
X175260000Y-73660000D03*
%TD*%
%TO.C,*%
X195580000Y-86360000D03*
%TD*%
%TO.C,*%
X203200000Y-101600000D03*
%TD*%
%TO.C,*%
X200660000Y-109220000D03*
%TD*%
%TO.C,*%
X172720000Y-93980000D03*
%TD*%
%TO.C,*%
X195580000Y-101600000D03*
%TD*%
%TO.C,*%
X182880000Y-106680000D03*
%TD*%
%TO.C,*%
X172720000Y-104140000D03*
%TD*%
%TO.C,*%
X177800000Y-109220000D03*
%TD*%
%TO.C,*%
X187960000Y-81280000D03*
%TD*%
%TO.C,*%
X200660000Y-81280000D03*
%TD*%
%TO.C,*%
X182880000Y-71120000D03*
%TD*%
%TO.C,*%
X172720000Y-101600000D03*
%TD*%
%TO.C,*%
X198120000Y-76200000D03*
%TD*%
%TO.C,*%
X175260000Y-106680000D03*
%TD*%
%TO.C,*%
X187960000Y-111760000D03*
%TD*%
%TO.C,*%
X172720000Y-83820000D03*
%TD*%
%TO.C,*%
X185420000Y-78740000D03*
%TD*%
%TO.C,*%
X193040000Y-81280000D03*
%TD*%
%TO.C,*%
X193040000Y-86360000D03*
%TD*%
%TO.C,*%
X177800000Y-106680000D03*
%TD*%
%TO.C,*%
X175260000Y-101600000D03*
%TD*%
%TO.C,*%
X185420000Y-91440000D03*
%TD*%
%TO.C,*%
X182880000Y-81280000D03*
%TD*%
%TO.C,*%
X185420000Y-73660000D03*
%TD*%
%TO.C,*%
X195580000Y-93980000D03*
%TD*%
%TO.C,*%
X200660000Y-83820000D03*
%TD*%
%TO.C,*%
X177800000Y-93980000D03*
%TD*%
%TO.C,*%
X203200000Y-88900000D03*
%TD*%
%TO.C,*%
X195580000Y-111760000D03*
%TD*%
%TO.C,*%
X185420000Y-81280000D03*
%TD*%
%TO.C,*%
X175260000Y-83820000D03*
%TD*%
%TO.C,*%
X205740000Y-106680000D03*
%TD*%
%TO.C,*%
X182880000Y-88900000D03*
%TD*%
%TO.C,*%
X172720000Y-111760000D03*
%TD*%
%TO.C,*%
X182880000Y-83820000D03*
%TD*%
%TO.C,*%
X203200000Y-76200000D03*
%TD*%
%TO.C,*%
X190500000Y-81280000D03*
%TD*%
%TO.C,*%
X200660000Y-96520000D03*
%TD*%
%TO.C,*%
X177800000Y-86360000D03*
%TD*%
%TO.C,*%
X185420000Y-99060000D03*
%TD*%
%TO.C,*%
X205740000Y-81280000D03*
%TD*%
%TO.C,*%
X193040000Y-93980000D03*
%TD*%
%TO.C,*%
X187960000Y-104140000D03*
%TD*%
%TO.C,*%
X198120000Y-114300000D03*
%TD*%
%TO.C,*%
X198120000Y-73660000D03*
%TD*%
%TO.C,*%
X180340000Y-71120000D03*
%TD*%
%TO.C,*%
X190500000Y-114300000D03*
%TD*%
%TO.C,*%
X182880000Y-73660000D03*
%TD*%
%TO.C,*%
X200660000Y-101600000D03*
%TD*%
%TO.C,*%
X198120000Y-93980000D03*
%TD*%
%TO.C,*%
X195580000Y-106680000D03*
%TD*%
%TO.C,*%
X205740000Y-88900000D03*
%TD*%
%TO.C,*%
X177800000Y-96520000D03*
%TD*%
%TO.C,*%
X177800000Y-99060000D03*
%TD*%
%TO.C,*%
X177800000Y-111760000D03*
%TD*%
%TO.C,*%
X198120000Y-106680000D03*
%TD*%
%TO.C,*%
X198120000Y-104140000D03*
%TD*%
%TO.C,*%
X190500000Y-86360000D03*
%TD*%
%TO.C,*%
X193040000Y-104140000D03*
%TD*%
%TO.C,*%
X185420000Y-71120000D03*
%TD*%
%TO.C,*%
X200660000Y-88900000D03*
%TD*%
%TO.C,*%
X182880000Y-101600000D03*
%TD*%
%TO.C,*%
X190500000Y-88900000D03*
%TD*%
%TO.C,*%
X203200000Y-106680000D03*
%TD*%
%TO.C,*%
X182880000Y-78740000D03*
%TD*%
%TO.C,*%
X190500000Y-111760000D03*
%TD*%
%TO.C,*%
X180340000Y-104140000D03*
%TD*%
%TO.C,*%
X187960000Y-91440000D03*
%TD*%
%TO.C,*%
X193040000Y-71120000D03*
%TD*%
%TO.C,*%
X182880000Y-111760000D03*
%TD*%
%TO.C,*%
X203200000Y-109220000D03*
%TD*%
%TO.C,*%
X195580000Y-71120000D03*
%TD*%
%TO.C,*%
X190500000Y-73660000D03*
%TD*%
%TO.C,*%
X185420000Y-114300000D03*
%TD*%
%TO.C,*%
X172720000Y-91440000D03*
%TD*%
%TO.C,*%
X193040000Y-96520000D03*
%TD*%
%TO.C,*%
X187960000Y-71120000D03*
%TD*%
%TO.C,*%
X190500000Y-91440000D03*
%TD*%
%TO.C,*%
X187960000Y-101600000D03*
%TD*%
%TO.C,*%
X180340000Y-99060000D03*
%TD*%
D13*
%TO.C,JP6*%
X154876000Y-86322500D03*
D14*
X154876000Y-83782500D03*
X154876000Y-81242500D03*
X154876000Y-78702500D03*
%TD*%
D10*
%TO.C,*%
X200660000Y-114300000D03*
%TD*%
%TO.C,*%
X187960000Y-76200000D03*
%TD*%
%TO.C,*%
X180340000Y-101600000D03*
%TD*%
D13*
%TO.C,JP8*%
X124460000Y-99060000D03*
D14*
X124460000Y-101600000D03*
X124460000Y-104140000D03*
X124460000Y-106680000D03*
X124460000Y-109220000D03*
X124460000Y-111760000D03*
%TD*%
D10*
%TO.C,*%
X172720000Y-73660000D03*
%TD*%
%TO.C,*%
X190500000Y-93980000D03*
%TD*%
%TO.C,*%
X187960000Y-73660000D03*
%TD*%
%TO.C,*%
X203200000Y-78740000D03*
%TD*%
%TO.C,*%
X185420000Y-104140000D03*
%TD*%
%TO.C,*%
X177800000Y-71120000D03*
%TD*%
%TO.C,*%
X172720000Y-99060000D03*
%TD*%
%TO.C,*%
X203200000Y-91440000D03*
%TD*%
%TO.C,*%
X198120000Y-71120000D03*
%TD*%
%TO.C,*%
X200660000Y-106680000D03*
%TD*%
%TO.C,*%
X200660000Y-111760000D03*
%TD*%
%TO.C,*%
X200660000Y-86360000D03*
%TD*%
%TO.C,*%
X172720000Y-106680000D03*
%TD*%
%TO.C,*%
X185420000Y-93980000D03*
%TD*%
%TO.C,*%
X195580000Y-104140000D03*
%TD*%
%TO.C,*%
X195580000Y-91440000D03*
%TD*%
%TO.C,*%
X198120000Y-86360000D03*
%TD*%
%TO.C,*%
X205740000Y-111760000D03*
%TD*%
%TO.C,*%
X190500000Y-76200000D03*
%TD*%
%TO.C,*%
X205740000Y-93980000D03*
%TD*%
%TO.C,*%
X195580000Y-73660000D03*
%TD*%
%TO.C,*%
X182880000Y-114300000D03*
%TD*%
%TO.C,*%
X177800000Y-73660000D03*
%TD*%
%TO.C,*%
X187960000Y-83820000D03*
%TD*%
%TO.C,*%
X198120000Y-91440000D03*
%TD*%
%TO.C,*%
X198120000Y-111760000D03*
%TD*%
%TO.C,*%
X205740000Y-91440000D03*
%TD*%
%TO.C,*%
X205740000Y-71120000D03*
%TD*%
%TO.C,*%
X205740000Y-101600000D03*
%TD*%
%TO.C,*%
X193040000Y-76200000D03*
%TD*%
%TO.C,*%
X187960000Y-88900000D03*
%TD*%
%TO.C,*%
X190500000Y-71120000D03*
%TD*%
%TO.C,*%
X195580000Y-109220000D03*
%TD*%
%TO.C,*%
X198120000Y-83820000D03*
%TD*%
%TO.C,*%
X193040000Y-73660000D03*
%TD*%
%TO.C,*%
X182880000Y-76200000D03*
%TD*%
%TO.C,*%
X187960000Y-86360000D03*
%TD*%
%TO.C,*%
X205740000Y-109220000D03*
%TD*%
%TO.C,*%
X198120000Y-101600000D03*
%TD*%
%TO.C,*%
X185420000Y-86360000D03*
%TD*%
%TO.C,*%
X182880000Y-109220000D03*
%TD*%
%TO.C,*%
X175260000Y-88900000D03*
%TD*%
%TO.C,*%
X175260000Y-78740000D03*
%TD*%
%TO.C,*%
X180340000Y-81280000D03*
%TD*%
%TO.C,*%
X193040000Y-114300000D03*
%TD*%
%TO.C,*%
X180340000Y-73660000D03*
%TD*%
%TO.C,*%
X172720000Y-109220000D03*
%TD*%
%TO.C,*%
X205740000Y-114300000D03*
%TD*%
%TO.C,*%
X195580000Y-81280000D03*
%TD*%
%TO.C,*%
X203200000Y-93980000D03*
%TD*%
%TO.C,*%
X182880000Y-91440000D03*
%TD*%
%TO.C,*%
X193040000Y-78740000D03*
%TD*%
%TO.C,*%
X190500000Y-96520000D03*
%TD*%
%TO.C,*%
X198120000Y-81280000D03*
%TD*%
%TO.C,*%
X193040000Y-83820000D03*
%TD*%
%TO.C,*%
X177800000Y-81280000D03*
%TD*%
%TO.C,*%
X175260000Y-86360000D03*
%TD*%
%TO.C,*%
X205740000Y-73660000D03*
%TD*%
%TO.C,*%
X177800000Y-76200000D03*
%TD*%
%TO.C,*%
X175260000Y-109220000D03*
%TD*%
%TO.C,*%
X172720000Y-81280000D03*
%TD*%
%TO.C,*%
X193040000Y-111760000D03*
%TD*%
%TO.C,*%
X195580000Y-88900000D03*
%TD*%
%TO.C,*%
X200660000Y-104140000D03*
%TD*%
%TO.C,*%
X203200000Y-83820000D03*
%TD*%
%TO.C,*%
X195580000Y-78740000D03*
%TD*%
%TO.C,*%
X190500000Y-99060000D03*
%TD*%
%TO.C,*%
X175260000Y-96520000D03*
%TD*%
%TO.C,REF\u002A\u002A*%
X172720000Y-71120000D03*
%TD*%
%TO.C,*%
X182880000Y-104140000D03*
%TD*%
%TO.C,*%
X180340000Y-86360000D03*
%TD*%
%TO.C,*%
X175260000Y-81280000D03*
%TD*%
D15*
%TO.C,J2*%
X165100000Y-78200000D03*
D16*
X165100000Y-76200000D03*
D17*
X165100000Y-74200000D03*
D16*
X165100000Y-72200000D03*
%TD*%
D10*
%TO.C,*%
X205740000Y-78740000D03*
%TD*%
%TO.C,*%
X205740000Y-83820000D03*
%TD*%
%TO.C,*%
X185420000Y-88900000D03*
%TD*%
%TO.C,*%
X187960000Y-114300000D03*
%TD*%
%TO.C,*%
X175260000Y-111760000D03*
%TD*%
%TO.C,*%
X190500000Y-101600000D03*
%TD*%
%TO.C,*%
X195580000Y-114300000D03*
%TD*%
%TO.C,*%
X185420000Y-111760000D03*
%TD*%
%TO.C,*%
X172720000Y-78740000D03*
%TD*%
%TO.C,*%
X175260000Y-76200000D03*
%TD*%
%TO.C,*%
X200660000Y-76200000D03*
%TD*%
%TO.C,*%
X172720000Y-96520000D03*
%TD*%
%TO.C,*%
X177800000Y-114300000D03*
%TD*%
%TO.C,*%
X177800000Y-88900000D03*
%TD*%
%TO.C,*%
X180340000Y-93980000D03*
%TD*%
%TO.C,*%
X195580000Y-76200000D03*
%TD*%
%TO.C,*%
X180340000Y-111760000D03*
%TD*%
%TO.C,*%
X205740000Y-76200000D03*
%TD*%
%TO.C,*%
X175260000Y-99060000D03*
%TD*%
%TO.C,*%
X193040000Y-106680000D03*
%TD*%
%TO.C,*%
X180340000Y-76200000D03*
%TD*%
%TO.C,*%
X198120000Y-78740000D03*
%TD*%
%TO.C,*%
X200660000Y-91440000D03*
%TD*%
%TO.C,*%
X205740000Y-104140000D03*
%TD*%
%TO.C,*%
X187960000Y-99060000D03*
%TD*%
%TO.C,*%
X203200000Y-86360000D03*
%TD*%
%TO.C,*%
X205740000Y-96520000D03*
%TD*%
D13*
%TO.C,JP7*%
X127000000Y-86360000D03*
D14*
X127000000Y-83820000D03*
X127000000Y-81280000D03*
X127000000Y-78740000D03*
X127000000Y-76200000D03*
X127000000Y-73660000D03*
X127000000Y-71120000D03*
%TD*%
D10*
%TO.C,*%
X203200000Y-114300000D03*
%TD*%
%TO.C,*%
X177800000Y-104140000D03*
%TD*%
%TO.C,*%
X203200000Y-99060000D03*
%TD*%
%TO.C,*%
X175260000Y-71120000D03*
%TD*%
%TO.C,*%
X187960000Y-109220000D03*
%TD*%
%TO.C,*%
X205740000Y-86360000D03*
%TD*%
%TO.C,*%
X205740000Y-96520000D03*
%TD*%
%TO.C,*%
X195580000Y-83820000D03*
%TD*%
%TO.C,*%
X175260000Y-93980000D03*
%TD*%
%TO.C,*%
X175260000Y-91440000D03*
%TD*%
%TO.C,*%
X177800000Y-78740000D03*
%TD*%
D13*
%TO.C,JP10*%
X132080000Y-96580000D03*
D18*
X134620000Y-96580000D03*
D14*
X137160000Y-96580000D03*
X139700000Y-96580000D03*
X142240000Y-96580000D03*
X144780000Y-96580000D03*
X147320000Y-96580000D03*
%TD*%
D10*
%TO.C,*%
X185420000Y-109220000D03*
%TD*%
%TO.C,*%
X193040000Y-91440000D03*
%TD*%
%TO.C,*%
X203200000Y-96520000D03*
%TD*%
%TO.C,*%
X203200000Y-71120000D03*
%TD*%
%TO.C,*%
X180340000Y-83820000D03*
%TD*%
%TO.C,*%
X180340000Y-88900000D03*
%TD*%
%TO.C,*%
X182880000Y-86360000D03*
%TD*%
%TO.C,*%
X177800000Y-101600000D03*
%TD*%
%TO.C,*%
X185420000Y-96520000D03*
%TD*%
%TO.C,*%
X185420000Y-101600000D03*
%TD*%
D15*
%TO.C,J3*%
X165100000Y-88916000D03*
D16*
X165100000Y-86916000D03*
D17*
X165100000Y-84916000D03*
D16*
X165100000Y-82916000D03*
%TD*%
D10*
%TO.C,*%
X180340000Y-78740000D03*
%TD*%
%TO.C,*%
X177800000Y-83820000D03*
%TD*%
%TO.C,*%
X180340000Y-114300000D03*
%TD*%
%TO.C,*%
X203200000Y-81280000D03*
%TD*%
%TO.C,*%
X198120000Y-96520000D03*
%TD*%
%TO.C,*%
X200660000Y-78740000D03*
%TD*%
%TO.C,*%
X190500000Y-106680000D03*
%TD*%
%TO.C,*%
X195580000Y-96520000D03*
%TD*%
%TO.C,*%
X200660000Y-99060000D03*
%TD*%
%TO.C,*%
X200660000Y-73660000D03*
%TD*%
%TO.C,*%
X200660000Y-93980000D03*
%TD*%
%TO.C,*%
X177800000Y-91440000D03*
%TD*%
%TO.C,*%
X190500000Y-104140000D03*
%TD*%
%TO.C,*%
X182880000Y-99060000D03*
%TD*%
%TO.C,*%
X203200000Y-104140000D03*
%TD*%
%TO.C,*%
X200660000Y-71120000D03*
%TD*%
%TO.C,*%
X198120000Y-88900000D03*
%TD*%
%TO.C,*%
X180340000Y-91440000D03*
%TD*%
%TO.C,*%
X190500000Y-109220000D03*
%TD*%
%TO.C,*%
X172720000Y-114300000D03*
%TD*%
%TO.C,*%
X187960000Y-106680000D03*
%TD*%
%TO.C,*%
X175260000Y-114300000D03*
%TD*%
%TO.C,*%
X195580000Y-99060000D03*
%TD*%
%TO.C,*%
X187960000Y-93980000D03*
%TD*%
%TO.C,*%
X198120000Y-109220000D03*
%TD*%
%TO.C,*%
X190500000Y-83820000D03*
%TD*%
%TO.C,*%
X193040000Y-109220000D03*
%TD*%
%TO.C,*%
X182880000Y-93980000D03*
%TD*%
%TO.C,*%
X203200000Y-111760000D03*
%TD*%
%TO.C,*%
X205740000Y-99060000D03*
%TD*%
D19*
%TO.C,A1*%
X58420000Y-88600000D03*
X58420000Y-83520000D03*
D12*
X60960000Y-88600000D03*
X60960000Y-83520000D03*
X63500000Y-88600000D03*
X63500000Y-83520000D03*
X66040000Y-88600000D03*
X66040000Y-83520000D03*
X68580000Y-88600000D03*
X68580000Y-83520000D03*
X71120000Y-88600000D03*
X71120000Y-83520000D03*
X73660000Y-88600000D03*
X73660000Y-83520000D03*
X76200000Y-88600000D03*
X76200000Y-83520000D03*
X78740000Y-88600000D03*
X78740000Y-83520000D03*
X81280000Y-88600000D03*
X81280000Y-83520000D03*
X83820000Y-88600000D03*
X83820000Y-83520000D03*
X86360000Y-88600000D03*
X86360000Y-83520000D03*
X88900000Y-88600000D03*
X88900000Y-83520000D03*
X91440000Y-88600000D03*
X91440000Y-83520000D03*
X93980000Y-88600000D03*
X93980000Y-83520000D03*
X96520000Y-88600000D03*
X96520000Y-83520000D03*
X96520000Y-73960000D03*
X96520000Y-68880000D03*
X93980000Y-73960000D03*
X93980000Y-68880000D03*
X91440000Y-73960000D03*
X91440000Y-68880000D03*
X88900000Y-73960000D03*
X88900000Y-68880000D03*
X86360000Y-73960000D03*
X86360000Y-68880000D03*
X83820000Y-73960000D03*
X83820000Y-68880000D03*
X81280000Y-73960000D03*
X81280000Y-68880000D03*
X78740000Y-73960000D03*
X78740000Y-68880000D03*
X76200000Y-73960000D03*
X76200000Y-68880000D03*
X73660000Y-73960000D03*
X73660000Y-68880000D03*
X71120000Y-73960000D03*
X71120000Y-68880000D03*
X68580000Y-73960000D03*
X68580000Y-68880000D03*
%TD*%
M02*
