M48
; DRILL file {KiCad 8.0.4} date 2024-10-10T15:19:23-0400
; FORMAT={-:-/ absolute / inch / decimal}
; #@! TF.CreationDate,2024-10-10T15:19:23-04:00
; #@! TF.GenerationSoftware,Kicad,Pcbnew,8.0.4
; #@! TF.FileFunction,Plated,1,2,PTH
FMAT,2
INCH
; #@! TA.AperFunction,Plated,PTH,ViaDrill
T1C0.0118
; #@! TA.AperFunction,Plated,PTH,ComponentDrill
T2C0.0315
; #@! TA.AperFunction,Plated,PTH,ComponentDrill
T3C0.0394
; #@! TA.AperFunction,Plated,PTH,ComponentDrill
T4C0.0400
%
G90
G05
T1
X2.225Y-3.875
X2.435Y-2.91
X2.55Y-4.25
X2.6Y-3.6
X3.2Y-3.0
X3.2Y-4.2
X3.215Y-3.62
X3.325Y-3.6
X3.35Y-3.1
X3.5Y-3.1
X3.6Y-3.1
X3.6Y-4.3
X3.8062Y-4.2062
X3.95Y-3.9
X4.05Y-4.0
X4.05Y-4.075
X4.4Y-3.0
X5.15Y-4.0
X5.5Y-3.0
T2
X6.5Y-2.8425
X6.5Y-2.9213
X6.5Y-3.0
X6.5Y-3.0787
X6.5Y-3.2644
X6.5Y-3.3431
X6.5Y-3.4219
X6.5Y-3.5006
T3
X6.1Y-2.925
X6.1Y-3.025
X6.1Y-3.125
X6.1Y-3.225
X6.1Y-3.325
X6.8Y-2.8
X6.8Y-2.9
X6.8Y-3.0
X6.8Y-3.1
X6.8Y-3.2
X6.8Y-3.3
X6.8Y-3.4
X6.8Y-3.5
X6.8Y-3.6
X6.8Y-3.7
X6.8Y-3.8
X6.8Y-3.9
X6.8Y-4.0
X6.8Y-4.1
X6.8Y-4.2
X6.8Y-4.3
X6.8Y-4.4
X6.8Y-4.5
X6.9Y-2.8
X6.9Y-2.9
X6.9Y-3.0
X6.9Y-3.1
X6.9Y-3.2
X6.9Y-3.3
X6.9Y-3.4
X6.9Y-3.5
X6.9Y-3.6
X6.9Y-3.7
X6.9Y-3.8
X6.9Y-3.9
X6.9Y-4.0
X6.9Y-4.1
X6.9Y-4.2
X6.9Y-4.3
X6.9Y-4.4
X6.9Y-4.5
X7.0Y-2.8
X7.0Y-2.9
X7.0Y-3.0
X7.0Y-3.1
X7.0Y-3.2
X7.0Y-3.3
X7.0Y-3.4
X7.0Y-3.5
X7.0Y-3.6
X7.0Y-3.7
X7.0Y-3.8
X7.0Y-3.9
X7.0Y-4.0
X7.0Y-4.1
X7.0Y-4.2
X7.0Y-4.3
X7.0Y-4.4
X7.0Y-4.5
X7.1Y-2.8
X7.1Y-2.9
X7.1Y-3.0
X7.1Y-3.1
X7.1Y-3.2
X7.1Y-3.3
X7.1Y-3.4
X7.1Y-3.5
X7.1Y-3.6
X7.1Y-3.7
X7.1Y-3.8
X7.1Y-3.9
X7.1Y-4.0
X7.1Y-4.1
X7.1Y-4.2
X7.1Y-4.3
X7.1Y-4.4
X7.1Y-4.5
X7.2Y-2.8
X7.2Y-2.9
X7.2Y-3.0
X7.2Y-3.1
X7.2Y-3.2
X7.2Y-3.3
X7.2Y-3.4
X7.2Y-3.5
X7.2Y-3.6
X7.2Y-3.7
X7.2Y-3.8
X7.2Y-3.9
X7.2Y-4.0
X7.2Y-4.1
X7.2Y-4.2
X7.2Y-4.3
X7.2Y-4.4
X7.2Y-4.5
X7.3Y-2.8
X7.3Y-2.9
X7.3Y-3.0
X7.3Y-3.1
X7.3Y-3.2
X7.3Y-3.3
X7.3Y-3.4
X7.3Y-3.5
X7.3Y-3.6
X7.3Y-3.7
X7.3Y-3.8
X7.3Y-3.9
X7.3Y-4.0
X7.3Y-4.1
X7.3Y-4.2
X7.3Y-4.3
X7.3Y-4.4
X7.3Y-4.5
X7.4Y-2.8
X7.4Y-2.9
X7.4Y-3.0
X7.4Y-3.1
X7.4Y-3.2
X7.4Y-3.3
X7.4Y-3.4
X7.4Y-3.5
X7.4Y-3.6
X7.4Y-3.7
X7.4Y-3.8
X7.4Y-3.9
X7.4Y-4.0
X7.4Y-4.1
X7.4Y-4.2
X7.4Y-4.3
X7.4Y-4.4
X7.4Y-4.5
X7.5Y-2.8
X7.5Y-2.9
X7.5Y-3.0
X7.5Y-3.1
X7.5Y-3.2
X7.5Y-3.3
X7.5Y-3.4
X7.5Y-3.5
X7.5Y-3.6
X7.5Y-3.7
X7.5Y-3.8
X7.5Y-3.9
X7.5Y-4.0
X7.5Y-4.1
X7.5Y-4.2
X7.5Y-4.3
X7.5Y-4.4
X7.5Y-4.5
X7.6Y-2.8
X7.6Y-2.9
X7.6Y-3.0
X7.6Y-3.1
X7.6Y-3.2
X7.6Y-3.3
X7.6Y-3.4
X7.6Y-3.5
X7.6Y-3.6
X7.6Y-3.7
X7.6Y-3.8
X7.6Y-3.9
X7.6Y-4.0
X7.6Y-4.1
X7.6Y-4.2
X7.6Y-4.3
X7.6Y-4.4
X7.6Y-4.5
X7.7Y-2.8
X7.7Y-2.9
X7.7Y-3.0
X7.7Y-3.1
X7.7Y-3.2
X7.7Y-3.3
X7.7Y-3.4
X7.7Y-3.5
X7.7Y-3.6
X7.7Y-3.7
X7.7Y-3.8
X7.7Y-3.9
X7.7Y-4.0
X7.7Y-4.1
X7.7Y-4.2
X7.7Y-4.3
X7.7Y-4.4
X7.7Y-4.5
X7.8Y-2.8
X7.8Y-2.9
X7.8Y-3.0
X7.8Y-3.1
X7.8Y-3.2
X7.8Y-3.3
X7.8Y-3.4
X7.8Y-3.5
X7.8Y-3.6
X7.8Y-3.7
X7.8Y-3.8
X7.8Y-3.9
X7.8Y-4.0
X7.8Y-4.1
X7.8Y-4.2
X7.8Y-4.3
X7.8Y-4.4
X7.8Y-4.5
X7.9Y-2.8
X7.9Y-2.9
X7.9Y-3.0
X7.9Y-3.1
X7.9Y-3.2
X7.9Y-3.3
X7.9Y-3.4
X7.9Y-3.5
X7.9Y-3.6
X7.9Y-3.7
X7.9Y-3.8
X7.9Y-3.9
X7.9Y-4.0
X7.9Y-4.1
X7.9Y-4.2
X7.9Y-4.3
X7.9Y-4.4
X7.9Y-4.5
X8.0Y-2.8
X8.0Y-2.9
X8.0Y-3.0
X8.0Y-3.1
X8.0Y-3.2
X8.0Y-3.3
X8.0Y-3.4
X8.0Y-3.5
X8.0Y-3.6
X8.0Y-3.7
X8.0Y-3.8
X8.0Y-3.9
X8.0Y-4.0
X8.0Y-4.1
X8.0Y-4.2
X8.0Y-4.3
X8.0Y-4.4
X8.0Y-4.5
X8.1Y-2.8
X8.1Y-2.9
X8.1Y-3.0
X8.1Y-3.1
X8.1Y-3.2
X8.1Y-3.3
X8.1Y-3.4
X8.1Y-3.5
X8.1Y-3.6
X8.1Y-3.7
X8.1Y-3.8
X8.1Y-3.8
X8.1Y-3.9
X8.1Y-4.0
X8.1Y-4.1
X8.1Y-4.2
X8.1Y-4.3
X8.1Y-4.4
X8.1Y-4.5
T4
X2.3Y-3.3
X2.3Y-3.5
X2.3Y-3.75
X2.3Y-3.95
X2.3Y-4.35
X2.3Y-4.55
X2.4Y-3.3
X2.4Y-3.5
X2.4Y-3.75
X2.4Y-3.95
X2.4Y-4.35
X2.4Y-4.55
X2.5Y-3.3
X2.5Y-3.5
X2.5Y-3.75
X2.5Y-3.95
X2.5Y-4.35
X2.5Y-4.55
X2.6Y-3.3
X2.6Y-3.5
X2.6Y-3.75
X2.6Y-3.95
X2.6Y-4.35
X2.6Y-4.55
X2.7Y-2.7
X2.7Y-2.9
X2.7Y-3.3
X2.7Y-3.5
X2.7Y-3.75
X2.7Y-3.95
X2.7Y-4.35
X2.7Y-4.55
X2.8Y-2.7
X2.8Y-2.9
X2.8Y-3.3
X2.8Y-3.5
X2.8Y-3.75
X2.8Y-3.95
X2.8Y-4.35
X2.8Y-4.55
X2.9Y-2.7
X2.9Y-2.9
X2.9Y-3.3
X2.9Y-3.5
X2.9Y-3.75
X2.9Y-3.95
X2.9Y-4.35
X2.9Y-4.55
X3.0Y-2.7
X3.0Y-2.9
X3.0Y-3.3
X3.0Y-3.5
X3.0Y-3.75
X3.0Y-3.95
X3.0Y-4.35
X3.0Y-4.55
X3.1Y-2.7
X3.1Y-2.9
X3.1Y-3.3
X3.1Y-3.5
X3.1Y-3.75
X3.1Y-3.95
X3.1Y-4.35
X3.1Y-4.55
X3.2Y-2.7
X3.2Y-2.9
X3.2Y-3.3
X3.2Y-3.5
X3.2Y-3.75
X3.2Y-3.95
X3.2Y-4.35
X3.2Y-4.55
X3.3Y-2.7
X3.3Y-2.9
X3.3Y-3.3
X3.3Y-3.5
X3.3Y-3.75
X3.3Y-3.95
X3.3Y-4.35
X3.3Y-4.55
X3.4Y-2.7
X3.4Y-2.9
X3.4Y-3.3
X3.4Y-3.5
X3.4Y-3.75
X3.4Y-3.95
X3.4Y-4.35
X3.4Y-4.55
X3.5Y-2.7
X3.5Y-2.9
X3.5Y-3.3
X3.5Y-3.5
X3.5Y-3.75
X3.5Y-3.95
X3.6Y-2.7
X3.6Y-2.9
X3.6Y-3.3
X3.6Y-3.5
X3.6Y-3.75
X3.6Y-3.95
X3.7Y-2.7
X3.7Y-2.9
X3.7Y-3.3
X3.7Y-3.5
X3.7Y-3.75
X3.7Y-3.95
X3.8Y-2.7
X3.8Y-2.9
X3.8Y-3.3
X3.8Y-3.5
X3.8Y-3.75
X3.8Y-3.95
X4.375Y-4.4
X4.475Y-4.4
X4.575Y-4.4
X4.675Y-4.4
X4.9Y-3.9
X4.9Y-4.0
X4.9Y-4.1
X4.9Y-4.2
X4.9Y-4.3
X4.9Y-4.4
X5.0Y-2.8
X5.0Y-2.9
X5.0Y-3.0
X5.0Y-3.1
X5.0Y-3.2
X5.0Y-3.3
X5.0Y-3.4
X5.2Y-3.8
X5.3Y-3.8
X5.4Y-3.8
X5.5Y-3.8
X5.6Y-3.8
X5.7Y-3.8
X5.8Y-3.8
M30
